<svg width="408" height="441" viewBox="0 0 408 441" fill="none" xmlns="http://www.w3.org/2000/svg">
<g opacity="0.2" clip-path="url(#clip0_435_1501)">
<path fill-rule="evenodd" clip-rule="evenodd" d="M632.441 0.000393833L571.309 23.1385C564.355 25.93 557.666 28.6844 550.721 31.1857C542.976 33.9752 476.044 58.8855 469.965 63.3362L437.485 87.3104C426.521 95.5423 415.787 103.182 404.992 111.27L348.539 152.996C337.79 161.051 340.957 161.37 327.062 147.474L296.382 116.792C293.741 114.12 293.315 112.266 288.874 112.026C273.853 111.216 255.899 112.088 240.541 112.088C224.178 112.088 207.815 112.088 191.451 112.088C192.312 115.312 199.137 119.16 201.83 121.345C205.582 124.391 209.058 127.159 212.837 129.975C233.941 145.696 257.443 165.773 278.881 181.744L498.891 354.454C500.895 356.103 502.333 357.037 504.463 358.7C509.259 362.445 540.361 387.853 543.261 388.627C542.547 385.952 511.234 350.441 505.004 343.431L418.779 244.752C415.464 240.61 412.12 236.886 408.463 232.978C407.02 231.436 407.089 231.223 405.93 229.783L400.659 223.601C399.601 222.343 398.919 221.873 397.826 220.706L377.174 196.359C378.79 195.277 379.091 194.76 380.792 193.431L552.729 61.8306C560.849 55.7604 630.239 3.28614 632.44 0L632.441 0.000393833Z" fill="#811829"/>
<path fill-rule="evenodd" clip-rule="evenodd" d="M252.814 243.813C252.814 246.612 240.055 255.03 237.855 256.671C232.27 260.838 227.713 264.491 222.074 268.707L142.822 329.361C139.913 331.554 137.738 333.397 134.999 335.447C132.209 337.535 129.438 339.481 126.628 341.803L31.2105 414.927C25.7472 419.007 20.9105 422.868 15.4284 426.962C12.5518 429.111 0.892016 436.837 0.00195312 440.172L121.334 393.781C128.294 391.064 134.435 388.631 141.422 386.051C147.194 383.919 156.558 380.482 161.187 377.181L241.689 317.776C247.346 313.882 252.148 309.868 257.596 305.866C263.168 301.773 268.004 298.289 273.619 294.071C276.583 291.843 278.783 290.419 281.689 288.232C294.039 278.937 287.941 277.712 316.018 305.789C320.66 310.432 336.481 328.463 341.979 328.917C353.598 329.878 421.593 328.902 439.355 328.902C438.495 325.68 421.426 313.429 418.544 311.26C414.613 308.304 411.279 305.585 407.554 302.613L374.533 276.728C354.436 260.216 329.383 241.511 308.563 224.883L110.927 69.89C108.332 67.8637 91.0463 53.8972 88.3635 53.1816C90.3988 57.0282 96.6852 63.2705 100.516 68.0287L105.787 74.2115C106.845 75.469 107.527 75.9385 108.62 77.1062C110.669 79.2955 111.249 80.5456 113.526 82.8361C115.799 85.1215 116.581 86.6027 118.841 88.9759L226.832 213.344C227.924 214.511 228.607 214.98 229.664 216.238C231.968 218.978 252.814 241.973 252.814 243.814L252.814 243.813Z" fill="#A19C9B"/>
</g>
<defs>
<clipPath id="clip0_435_1501">
<rect width="632.443" height="440.171" fill="white"/>
</clipPath>
</defs>
</svg>
