<svg width="390" height="430" viewBox="0 0 390 430" fill="none" xmlns="http://www.w3.org/2000/svg">
<path fill-rule="evenodd" clip-rule="evenodd" d="M632.441 -10.9996L571.309 12.1385C564.355 14.93 557.666 17.6844 550.721 20.1857C542.976 22.9752 476.044 47.8855 469.965 52.3362L437.485 76.3104C426.521 84.5423 415.787 92.1819 404.992 100.27L348.539 141.996C337.79 150.051 340.957 150.37 327.062 136.474L296.382 105.792C293.741 103.12 293.315 101.266 288.874 101.026C273.853 100.216 255.899 101.088 240.541 101.088C224.178 101.088 207.815 101.088 191.451 101.088C192.312 104.312 199.137 108.16 201.83 110.345C205.582 113.391 209.058 116.159 212.837 118.975C233.941 134.696 257.443 154.773 278.881 170.744L498.891 343.454C500.895 345.103 502.333 346.037 504.463 347.7C509.259 351.445 540.361 376.853 543.261 377.627C542.547 374.952 511.234 339.441 505.004 332.431L418.779 233.752C415.464 229.61 412.12 225.886 408.463 221.978C407.02 220.436 407.089 220.223 405.93 218.783L400.659 212.601C399.601 211.343 398.919 210.873 397.826 209.706L377.174 185.359C378.79 184.277 379.091 183.76 380.792 182.431L552.729 50.8306C560.849 44.7604 630.239 -7.71386 632.44 -11L632.441 -10.9996Z" fill="#811829"/>
<path fill-rule="evenodd" clip-rule="evenodd" d="M252.814 232.813C252.814 235.612 240.055 244.03 237.855 245.671C232.27 249.838 227.713 253.491 222.074 257.707L142.822 318.361C139.913 320.554 137.738 322.397 134.999 324.447C132.209 326.535 129.438 328.481 126.628 330.803L31.2105 403.927C25.7472 408.007 20.9105 411.868 15.4284 415.962C12.5518 418.111 0.892016 425.837 0.00195312 429.172L121.334 382.781C128.294 380.064 134.435 377.631 141.422 375.051C147.194 372.919 156.558 369.482 161.187 366.181L241.689 306.776C247.346 302.882 252.148 298.868 257.596 294.866C263.168 290.773 268.004 287.289 273.619 283.071C276.583 280.843 278.783 279.419 281.689 277.232C294.039 267.937 287.941 266.712 316.018 294.789C320.66 299.432 336.481 317.463 341.979 317.917C353.598 318.878 421.593 317.902 439.355 317.902C438.495 314.68 421.426 302.429 418.544 300.26C414.613 297.304 411.279 294.585 407.555 291.613L374.533 265.728C354.436 249.216 329.383 230.511 308.563 213.883L110.927 58.89C108.332 56.8637 91.0463 42.8972 88.3635 42.1816C90.3988 46.0282 96.6852 52.2705 100.516 57.0287L105.787 63.2115C106.845 64.469 107.527 64.9385 108.62 66.1062C110.669 68.2955 111.249 69.5456 113.526 71.8361C115.799 74.1215 116.581 75.6027 118.841 77.9759L226.832 202.344C227.924 203.511 228.607 203.98 229.664 205.238C231.968 207.978 252.814 230.973 252.814 232.814L252.814 232.813Z" fill="#A19C9B"/>
</svg>
